# This file uses centimeters as units for non-parametric coordinates.

mtllib KelpJuice.mtl
g default
v 2.211832 -0.401468 0.080787
v 2.211027 -0.401468 0.075705
v 2.208691 -0.401468 0.071120
v 2.205053 -0.401468 0.067482
v 2.200468 -0.401468 0.065146
v 2.195386 -0.401468 0.064341
v 2.190304 -0.401468 0.065146
v 2.185720 -0.401468 0.067482
v 2.182082 -0.401468 0.071120
v 2.179746 -0.401468 0.075705
v 2.178940 -0.401468 0.080787
v 2.179746 -0.401468 0.085869
v 2.182082 -0.401468 0.090453
v 2.185720 -0.401468 0.094091
v 2.190304 -0.401468 0.096428
v 2.195386 -0.401468 0.097233
v 2.200468 -0.401468 0.096428
v 2.205053 -0.401468 0.094091
v 2.208691 -0.401468 0.090453
v 2.211027 -0.401468 0.085869
v 2.195931 0.401468 0.080787
v 2.195905 0.401468 0.080619
v 2.195827 0.401468 0.080467
v 2.195707 0.401468 0.080346
v 2.195555 0.401468 0.080269
v 2.195386 0.401468 0.080242
v 2.195218 0.401468 0.080269
v 2.195066 0.401468 0.080346
v 2.194945 0.401468 0.080467
v 2.194868 0.401468 0.080619
v 2.194841 0.401468 0.080787
v 2.194868 0.401468 0.080956
v 2.194945 0.401468 0.081107
v 2.211259 -0.663925 0.066945
v 2.195218 0.401468 0.081306
v 2.195386 0.401468 0.081332
v 2.195555 0.401468 0.081306
v 2.195707 0.401468 0.081228
v 2.195827 0.401468 0.081107
v 2.195905 0.401468 0.080956
v 2.276892 0.401468 0.080787
v 2.272901 0.401468 0.055601
v 2.261325 0.401468 0.032880
v 2.243293 0.401468 0.014849
v 2.220572 0.401468 0.003272
v 2.195386 0.401468 -0.000718
v 2.170200 0.401468 0.003272
v 2.147479 0.401468 0.014849
v 2.129448 0.401468 0.032880
v 2.117871 0.401468 0.055601
v 2.113881 0.401468 0.080787
v 2.117871 0.401468 0.105973
v 2.129448 0.401468 0.128694
v 2.147479 0.401468 0.146726
v 2.170200 0.401468 0.158302
v 2.195386 0.401468 0.162293
v 2.220572 0.401468 0.158302
v 2.243293 0.401468 0.146726
v 2.261325 0.401468 0.128694
v 2.272901 0.401468 0.105973
v 2.462542 -0.401467 0.080787
v 2.449467 -0.401467 -0.001769
v 2.411520 -0.401467 -0.076243
v 2.352417 -0.401467 -0.135347
v 2.277942 -0.401467 -0.173293
v 2.195386 -0.401467 -0.186369
v 2.112830 -0.401467 -0.173293
v 2.038356 -0.401467 -0.135347
v 1.979252 -0.401467 -0.076243
v 1.941306 -0.401467 -0.001769
v 1.928230 -0.401467 0.080787
v 1.941306 -0.401467 0.163343
v 1.979252 -0.401467 0.237818
v 2.038356 -0.401467 0.296921
v 2.112830 -0.401467 0.334868
v 2.195386 -0.401467 0.347943
v 2.277942 -0.401467 0.334868
v 2.352417 -0.401467 0.296921
v 2.411520 -0.401467 0.237818
v 2.449467 -0.401467 0.163343
vt 0.000000 1.000000
vt 0.050000 1.000000
vt 0.100000 1.000000
vt 0.150000 1.000000
vt 0.200000 1.000000
vt 0.250000 1.000000
vt 0.300000 1.000000
vt 0.350000 1.000000
vt 0.400000 1.000000
vt 0.450000 1.000000
vt 0.500000 1.000000
vt 0.550000 1.000000
vt 0.600000 1.000000
vt 0.650000 1.000000
vt 0.700000 1.000000
vt 0.750000 1.000000
vt 0.800000 1.000000
vt 0.850000 1.000000
vt 0.900000 1.000000
vt 0.950000 1.000000
vt 1.000000 1.000000
vt 0.000000 0.750000
vt 0.050000 0.750000
vt 0.100000 0.750000
vt 0.150000 0.750000
vt 0.200000 0.750000
vt 0.250000 0.750000
vt 0.300000 0.750000
vt 0.350000 0.750000
vt 0.400000 0.750000
vt 0.450000 0.750000
vt 0.500000 0.750000
vt 0.550000 0.750000
vt 0.600000 0.750000
vt 0.650000 0.750000
vt 0.700000 0.750000
vt 0.750000 0.750000
vt 0.800000 0.750000
vt 0.850000 0.750000
vt 0.900000 0.750000
vt 0.950000 0.750000
vt 1.000000 0.750000
vt 0.000000 0.500000
vt 0.050000 0.500000
vt 0.100000 0.500000
vt 0.150000 0.500000
vt 0.200000 0.500000
vt 0.250000 0.500000
vt 0.300000 0.500000
vt 0.350000 0.500000
vt 0.400000 0.500000
vt 0.450000 0.500000
vt 0.500000 0.500000
vt 0.550000 0.500000
vt 0.600000 0.500000
vt 0.650000 0.500000
vt 0.700000 0.500000
vt 0.750000 0.500000
vt 0.800000 0.500000
vt 0.850000 0.500000
vt 0.900000 0.500000
vt 0.950000 0.500000
vt 1.000000 0.500000
vt 0.000000 0.250000
vt 0.050000 0.250000
vt 0.100000 0.250000
vt 0.150000 0.250000
vt 0.200000 0.250000
vt 0.250000 0.250000
vt 0.300000 0.250000
vt 0.350000 0.250000
vt 0.400000 0.250000
vt 0.450000 0.250000
vt 0.500000 0.250000
vt 0.550000 0.250000
vt 0.600000 0.250000
vt 0.650000 0.250000
vt 0.700000 0.250000
vt 0.750000 0.250000
vt 0.800000 0.250000
vt 0.850000 0.250000
vt 0.900000 0.250000
vt 0.950000 0.250000
vt 1.000000 0.250000
vt 0.000000 0.000000
vt 0.050000 0.000000
vt 0.100000 0.000000
vt 0.150000 0.000000
vt 0.200000 0.000000
vt 0.250000 0.000000
vt 0.300000 0.000000
vt 0.350000 0.000000
vt 0.400000 0.000000
vt 0.450000 0.000000
vt 0.500000 0.000000
vt 0.550000 0.000000
vt 0.600000 0.000000
vt 0.650000 0.000000
vt 0.700000 0.000000
vt 0.750000 0.000000
vt 0.800000 0.000000
vt 0.850000 0.000000
vt 0.900000 0.000000
vt 0.950000 0.000000
vt 1.000000 0.000000
vn -0.950853 -0.019799 0.309008
vn -0.999804 -0.019800 -0.000002
vn -0.999804 -0.019800 -0.000004
vn -0.950850 -0.019799 0.309019
vn -0.808855 -0.019799 0.587674
vn -0.808848 -0.019799 0.587684
vn -0.587671 -0.019799 0.808858
vn -0.587683 -0.019799 0.808849
vn -0.309006 -0.019800 0.950854
vn -0.309019 -0.019800 0.950850
vn -0.000000 -0.019800 0.999804
vn 0.000000 -0.019800 0.999804
vn 0.309005 -0.019799 0.950854
vn 0.309019 -0.019799 0.950850
vn 0.587671 -0.019799 0.808858
vn 0.587683 -0.019799 0.808849
vn 0.808857 -0.019799 0.587673
vn 0.808850 -0.019799 0.587681
vn 0.950854 -0.019799 0.309007
vn 0.950850 -0.019799 0.309017
vn 0.999804 -0.019800 0.000001
vn 0.999804 -0.019800 -0.000001
vn 0.950854 -0.019799 -0.309005
vn 0.950849 -0.019799 -0.309020
vn -0.553760 -0.007355 -0.832644
vn -0.538708 -0.007723 -0.842457
vn 0.037029 -0.017789 -0.999156
vn 0.588496 -0.021557 -0.808212
vn 0.877951 -0.003030 0.478741
vn 0.889446 -0.003566 0.457027
vn -0.000000 -0.019799 -0.999804
vn 0.000000 -0.019799 -0.999804
vn -0.309006 -0.019799 -0.950854
vn -0.309019 -0.019799 -0.950850
vn -0.587672 -0.019799 -0.808857
vn -0.587682 -0.019799 -0.808850
vn -0.808858 -0.019799 -0.587671
vn -0.808849 -0.019799 -0.587683
vn -0.950854 -0.019799 -0.309007
vn -0.950849 -0.019799 -0.309022
vn 0.000000 1.000000 0.000000
vn 0.000000 1.000000 0.000000
vn 0.000000 1.000000 0.000000
vn 0.000000 1.000000 0.000000
vn 0.000000 1.000000 0.000000
vn 0.000000 1.000000 0.000000
vn 0.000000 1.000000 0.000000
vn 0.000000 1.000000 0.000000
vn 0.000000 1.000000 -0.000000
vn 0.000000 1.000000 -0.000000
vn 0.000000 1.000000 -0.000000
vn 0.000000 1.000000 -0.000000
vn 0.000000 1.000000 0.000000
vn 0.000000 1.000000 0.000000
vn 0.000000 1.000000 0.000000
vn 0.000000 1.000000 0.000000
vn 0.000000 1.000000 0.000000
vn 0.000000 1.000000 0.000000
vn 0.000000 1.000000 0.000000
vn 0.000000 1.000000 0.000000
vn 0.000000 1.000000 0.000000
vn 0.000000 1.000000 0.000000
vn 0.000000 1.000000 0.000000
vn 0.000000 1.000000 0.000000
vn 0.809380 0.046006 0.585480
vn 0.809143 0.051969 0.585309
vn 0.087847 0.995184 -0.043490
vn 0.674761 0.602970 0.425587
vn -0.807206 0.038139 -0.589037
vn -0.807041 0.043166 -0.588916
vn 0.000000 1.000000 -0.000000
vn 0.000000 1.000000 -0.000000
vn 0.000000 1.000000 0.000000
vn 0.000000 1.000000 0.000000
vn 0.000000 1.000000 0.000000
vn 0.000000 1.000000 0.000000
vn 0.000000 1.000000 0.000000
vn 0.000000 1.000000 0.000000
vn 0.000000 1.000000 0.000000
vn 0.000000 1.000000 0.000000
vn 0.926608 0.225273 -0.301081
vn 0.974296 0.225273 -0.000001
vn 0.974296 0.225273 -0.000001
vn 0.926609 0.225273 -0.301079
vn 0.788222 0.225273 -0.572676
vn 0.788222 0.225273 -0.572676
vn 0.572676 0.225273 -0.788222
vn 0.572677 0.225273 -0.788222
vn 0.301081 0.225273 -0.926608
vn 0.301079 0.225273 -0.926609
vn 0.000000 0.225273 -0.974296
vn 0.000000 0.225273 -0.974296
vn -0.301081 0.225273 -0.926608
vn -0.301079 0.225273 -0.926609
vn -0.572676 0.225273 -0.788222
vn -0.572677 0.225273 -0.788222
vn -0.788222 0.225273 -0.572676
vn -0.788222 0.225273 -0.572677
vn -0.926608 0.225273 -0.301081
vn -0.926609 0.225273 -0.301079
vn -0.974296 0.225273 -0.000000
vn -0.974296 0.225273 -0.000000
vn -0.926608 0.225273 0.301081
vn -0.926609 0.225273 0.301079
vn -0.788222 0.225273 0.572676
vn -0.788222 0.225273 0.572676
vn -0.572676 0.225273 0.788222
vn -0.572677 0.225273 0.788222
vn -0.301081 0.225273 0.926608
vn -0.301079 0.225273 0.926609
vn 0.000000 0.225273 0.974296
vn 0.000000 0.225273 0.974296
vn 0.301083 0.225273 0.926607
vn 0.301080 0.225273 0.926608
vn 0.572677 0.225273 0.788221
vn 0.572677 0.225273 0.788221
vn 0.788221 0.225273 0.572677
vn 0.788221 0.225273 0.572677
vn 0.926608 0.225273 0.301082
vn 0.926608 0.225273 0.301080
vn 0.000001 -1.000000 -0.000000
vn 0.000001 -1.000000 -0.000001
vn 0.000001 -1.000000 -0.000001
vn 0.000001 -1.000000 -0.000000
vn 0.000001 -1.000000 -0.000001
vn 0.000001 -1.000000 -0.000001
vn 0.000001 -1.000000 -0.000001
vn 0.000001 -1.000000 -0.000001
vn 0.000000 -1.000000 -0.000001
vn 0.000000 -1.000000 -0.000001
vn -0.000000 -1.000000 -0.000001
vn 0.000000 -1.000000 -0.000001
vn -0.000000 -1.000000 -0.000001
vn -0.000000 -1.000000 -0.000001
vn -0.000001 -1.000000 -0.000001
vn -0.000001 -1.000000 -0.000001
vn -0.000001 -1.000000 -0.000001
vn -0.000001 -1.000000 -0.000001
vn -0.000001 -1.000000 -0.000000
vn -0.000001 -1.000000 -0.000000
vn -0.000001 -1.000000 0.000000
vn -0.000001 -1.000000 0.000000
vn -0.000001 -1.000000 0.000000
vn -0.000001 -1.000000 0.000000
vn -0.000001 -1.000000 0.000001
vn -0.000001 -1.000000 0.000001
vn -0.000001 -1.000000 0.000001
vn -0.000001 -1.000000 0.000001
vn -0.000000 -1.000000 0.000001
vn -0.000000 -1.000000 0.000001
vn -0.000000 -1.000000 0.000001
vn -0.000000 -1.000000 0.000001
vn -0.000001 -1.000000 0.000001
vn -0.000001 -1.000000 0.000001
vn -0.000001 -1.000000 0.000001
vn -0.000001 -1.000000 0.000001
vn 0.000000 -1.000000 0.000000
vn 0.000000 -1.000000 0.000000
vn 0.000001 -1.000000 -0.000001
vn 0.000001 -1.000000 -0.000001
s 1
g pPipe3
usemtl initialShadingGroup
f 2/2/1 1/1/2 21/22/3 22/23/4
f 3/3/5 2/2/1 22/23/4 23/24/6
f 4/4/7 3/3/5 23/24/6 24/25/8
f 5/5/9 4/4/7 24/25/8 25/26/10
f 6/6/11 5/5/9 25/26/10 26/27/12
f 7/7/13 6/6/11 26/27/12 27/28/14
f 8/8/15 7/7/13 27/28/14 28/29/16
f 9/9/17 8/8/15 28/29/16 29/30/18
f 10/10/19 9/9/17 29/30/18 30/31/20
f 11/11/21 10/10/19 30/31/20 31/32/22
f 12/12/23 11/11/21 31/32/22 32/33/24
f 13/13/25 12/12/23 32/33/24 33/34/26
f 14/14/27 13/13/25 33/34/26 34/35/28
f 15/15/29 14/14/27 34/35/28 35/36/30
f 16/16/31 15/15/29 35/36/30 36/37/32
f 17/17/33 16/16/31 36/37/32 37/38/34
f 18/18/35 17/17/33 37/38/34 38/39/36
f 19/19/37 18/18/35 38/39/36 39/40/38
f 20/20/39 19/19/37 39/40/38 40/41/40
f 1/21/2 20/20/39 40/41/40 21/42/3
s 2
f 22/23/41 21/22/42 41/43/43 42/44/44
f 23/24/45 22/23/41 42/44/44 43/45/46
f 24/25/47 23/24/45 43/45/46 44/46/48
f 25/26/49 24/25/47 44/46/48 45/47/50
f 26/27/51 25/26/49 45/47/50 46/48/52
f 27/28/53 26/27/51 46/48/52 47/49/54
f 28/29/55 27/28/53 47/49/54 48/50/56
f 29/30/57 28/29/55 48/50/56 49/51/58
f 30/31/59 29/30/57 49/51/58 50/52/60
f 31/32/61 30/31/59 50/52/60 51/53/62
f 32/33/63 31/32/61 51/53/62 52/54/64
f 33/34/65 32/33/63 52/54/64 53/55/66
f 34/35/67 33/34/65 53/55/66 54/56/68
f 35/36/69 34/35/67 54/56/68 55/57/70
f 36/37/71 35/36/69 55/57/70 56/58/72
f 37/38/73 36/37/71 56/58/72 57/59/74
f 38/39/75 37/38/73 57/59/74 58/60/76
f 39/40/77 38/39/75 58/60/76 59/61/78
f 40/41/79 39/40/77 59/61/78 60/62/80
f 21/42/42 40/41/79 60/62/80 41/63/43
s 3
f 42/44/81 41/43/82 61/64/83 62/65/84
f 43/45/85 42/44/81 62/65/84 63/66/86
f 44/46/87 43/45/85 63/66/86 64/67/88
f 45/47/89 44/46/87 64/67/88 65/68/90
f 46/48/91 45/47/89 65/68/90 66/69/92
f 47/49/93 46/48/91 66/69/92 67/70/94
f 48/50/95 47/49/93 67/70/94 68/71/96
f 49/51/97 48/50/95 68/71/96 69/72/98
f 50/52/99 49/51/97 69/72/98 70/73/100
f 51/53/101 50/52/99 70/73/100 71/74/102
f 52/54/103 51/53/101 71/74/102 72/75/104
f 53/55/105 52/54/103 72/75/104 73/76/106
f 54/56/107 53/55/105 73/76/106 74/77/108
f 55/57/109 54/56/107 74/77/108 75/78/110
f 56/58/111 55/57/109 75/78/110 76/79/112
f 57/59/113 56/58/111 76/79/112 77/80/114
f 58/60/115 57/59/113 77/80/114 78/81/116
f 59/61/117 58/60/115 78/81/116 79/82/118
f 60/62/119 59/61/117 79/82/118 80/83/120
f 41/63/82 60/62/119 80/83/120 61/84/83
s 4
f 62/65/121 61/64/122 1/85/123 2/86/124
f 63/66/125 62/65/121 2/86/124 3/87/126
f 64/67/127 63/66/125 3/87/126 4/88/128
f 65/68/129 64/67/127 4/88/128 5/89/130
f 66/69/131 65/68/129 5/89/130 6/90/132
f 67/70/133 66/69/131 6/90/132 7/91/134
f 68/71/135 67/70/133 7/91/134 8/92/136
f 69/72/137 68/71/135 8/92/136 9/93/138
f 70/73/139 69/72/137 9/93/138 10/94/140
f 71/74/141 70/73/139 10/94/140 11/95/142
f 72/75/143 71/74/141 11/95/142 12/96/144
f 73/76/145 72/75/143 12/96/144 13/97/146
f 74/77/147 73/76/145 13/97/146 14/98/148
f 75/78/149 74/77/147 14/98/148 15/99/150
f 76/79/151 75/78/149 15/99/150 16/100/152
f 77/80/153 76/79/151 16/100/152 17/101/154
f 78/81/155 77/80/153 17/101/154 18/102/156
f 79/82/157 78/81/155 18/102/156 19/103/158
f 80/83/159 79/82/157 19/103/158 20/104/160
f 61/84/122 80/83/159 20/104/160 1/105/123
